<svg width="349" height="72" viewBox="0 0 349 72" fill="none" xmlns="http://www.w3.org/2000/svg">
<path d="M36.544 60H3.2V17.12H10.112V53.792H36.544V60ZM51.4445 24.48H44.5325V17.12H51.4445V24.48ZM51.4445 60H44.5325V28.192H51.4445V60ZM70.709 60H63.797V33.952H58.997V28.192H63.861C64.629 21.216 69.941 17.12 78.965 17.12H82.101V22.24H77.877C72.821 22.24 70.197 23.584 70.581 28.192H82.101V33.952H70.709V60ZM105.447 60.64C95.0155 60.64 88.1675 54.752 88.1675 44.128C88.1675 34.208 94.9515 27.552 105.319 27.552C115.175 27.552 121.896 32.992 121.896 42.656C121.896 43.808 121.832 44.704 121.639 45.664H94.6315C94.8875 51.808 97.8955 55.072 105.255 55.072C111.911 55.072 114.663 52.896 114.663 49.12V48.608H121.576V49.184C121.576 55.968 114.919 60.64 105.447 60.64ZM105.191 32.992C98.1515 32.992 95.0795 36.128 94.6955 41.824H115.367V41.696C115.367 35.808 111.975 32.992 105.191 32.992Z" fill="#007B8A"/>
<path d="M139.112 60H132.2V17.12H141.608L153.96 41.952L157.864 50.848H158.376L162.152 41.952L174.376 17.12H183.784V60H176.872V33.696L177.128 27.488H176.616L173.992 33.696L162.152 57.44H153.832L141.992 33.696L139.368 27.488H138.856L139.112 33.696V60ZM209.72 60.64C199.288 60.64 192.44 54.752 192.44 44.128C192.44 34.208 199.224 27.552 209.592 27.552C219.448 27.552 226.168 32.992 226.168 42.656C226.168 43.808 226.104 44.704 225.912 45.664H198.904C199.16 51.808 202.168 55.072 209.528 55.072C216.184 55.072 218.936 52.896 218.936 49.12V48.608H225.848V49.184C225.848 55.968 219.192 60.64 209.72 60.64ZM209.464 32.992C202.424 32.992 199.352 36.128 198.968 41.824H219.64V41.696C219.64 35.808 216.248 32.992 209.464 32.992ZM248.881 60.64C238.833 60.64 233.265 53.92 233.265 44.128C233.265 34.208 238.769 27.552 248.433 27.552C255.985 27.552 260.273 31.456 261.553 36.832H261.937V17.12H268.849V60H262.513V50.848H262.065C260.721 57.184 256.049 60.64 248.881 60.64ZM240.241 44.128C240.241 51.744 244.145 54.304 250.993 54.304C257.777 54.304 261.937 51.104 261.937 44.448V43.936C261.937 37.152 257.969 33.824 250.865 33.824C244.209 33.824 240.241 36.448 240.241 44.128ZM298.466 60H290.21L303.906 44.256V43.872L290.21 28.192H298.594L309.154 40.224H309.538L319.97 28.192H328.29L314.594 43.744V44.128L328.29 60H319.906L309.346 47.84H308.898L298.466 60Z" fill="#A2D5C6"/>
<path d="M276 31.6981H286V55C286 57.7614 283.761 60 281 60V60C278.239 60 276 57.7614 276 55V31.6981Z" fill="#007B8A"/>
<path d="M276 29H286V21C286 18.2386 283.761 16 281 16V16C278.239 16 276 18.2386 276 21V29Z" fill="#A2D5C6"/>
</svg>
