<svg xmlns="http://www.w3.org/2000/svg" xmlns:xlink="http://www.w3.org/1999/xlink" version="1.1" x="0px" y="0px" viewBox="0 0 100 125" style="enable-background:new 0 0 100 100;" xml:space="preserve"><path d="M64.2,75.2c0,2,1.6,3.6,3.6,3.6c2,0,3.6-1.6,3.6-3.6c0-1.6-1-2.9-2.4-3.4c-0.4-0.2-0.8-0.2-1.3-0.2c-0.4,0-0.8,0.1-1.1,0.2  C65.2,72.2,64.2,73.6,64.2,75.2z M67.8,73.1c1.2,0,2.1,1,2.1,2.1c0,1.2-1,2.1-2.1,2.1c-1.2,0-2.1-1-2.1-2.1  C65.7,74,66.6,73.1,67.8,73.1z"/><path d="M17.4,95h65.1c3.4,0,6.2-2.8,6.2-6.2V72c0-5.4-3.3-10.2-8.4-12.1L67.1,55c1.2,4.2,1.8,9.1,2,14.6c2.6,0.6,4.5,2.9,4.5,5.6  c0,3.2-2.6,5.8-5.8,5.8c-3.2,0-5.8-2.6-5.8-5.8c0-2.8,2-5.1,4.6-5.7c-0.1-6-0.9-11.2-2.4-15.7l-4-1.5c-0.6-0.2-1.2,0.1-1.4,0.6  L50,78.7c-0.1,0.4-0.6,0.3-0.7,0l-8.1-25.6c-0.2-0.6-0.8-0.9-1.4-0.7l-5.8,2.1c-1.2,3.1-1.8,6-1.8,8.6c0.2,0,0.4,0.1,0.5,0.4  l0.4,3.2c0,0.3,0.3,0.6,0.7,0.6c4.6,0.4,8.5,4,9.1,8.8l0.3,2.3c0,0.3-0.2,0.5-0.4,0.6L42.2,79l0.9,7.1c0.2,1.6-0.9,3-2.5,3.2l0,0  l0,0.1c0,0.3-0.2,0.7-0.6,0.7l-1,0.1c-0.8,0.1-1.5-0.4-1.6-1.2c-0.1-0.8,0.4-1.5,1.2-1.6l1-0.1c0.4,0,0.7,0.2,0.7,0.6l0,0.1l0,0  c0.9-0.1,1.5-0.9,1.4-1.8l-0.9-7.1l-0.4,0.1c-0.3,0-0.5-0.2-0.6-0.4l-0.3-2.3c-0.5-3.8-4-6.5-7.9-6c-3.8,0.5-6.4,4.1-5.9,7.9  l0.3,2.2c0,0.3-0.2,0.5-0.4,0.6l-0.4,0.1l0.9,7.1c0.1,0.9,0.9,1.5,1.8,1.4h0l0-0.1c0-0.3,0.2-0.7,0.6-0.7l1-0.1  c0.8-0.1,1.5,0.4,1.6,1.2c0.1,0.8-0.4,1.5-1.2,1.6l-1,0.1c-0.3,0-0.7-0.2-0.7-0.6l0-0.1l0,0c-1.6,0.2-3-0.9-3.2-2.5l-0.9-7.1  l-0.4,0.1c-0.3,0-0.5-0.2-0.6-0.4l-0.3-2.2c-0.6-4.8,2.2-9.3,6.6-10.9c0.3-0.1,0.5-0.4,0.5-0.8l-0.4-3.2c0-0.2,0.1-0.4,0.2-0.4  c-0.1-2.4,0.3-5,1.2-7.8l-11.3,4.2c-5,1.9-8.4,6.7-8.4,12.1v16.9C11.3,92.2,14,95,17.4,95z"/><path d="M35,34.5c1.2,7.8,7.7,13.2,14.4,14.3c0.2,0,0.4,0.1,0.6,0.1c0.7,0,1.3,0,1.9-0.2c8.2-2.4,12.1-8.5,13.2-14.1  c2.2,0.2,3.8-1.2,4.6-4.4c0.9-4.3,1-7.4-2.7-7.1c1.9-14.8-7.1-6.9-5.4-13.3c1.7-6.3-31.9-9.9-28.3,13.4c-3-0.6-4.4,1.1-3.3,6  C30.8,33.3,32.5,35,35,34.5z"/><text x="0" y="115" fill="#000000" font-size="5px" font-weight="bold" font-family="'Helvetica Neue', Helvetica, Arial-Unicode, Arial, Sans-serif">Created by Nubaia Karim Barsha</text><text x="0" y="120" fill="#000000" font-size="5px" font-weight="bold" font-family="'Helvetica Neue', Helvetica, Arial-Unicode, Arial, Sans-serif">from the Noun Project</text></svg>